<?xml version="1.0" encoding="utf-8"?>
<!-- Generator: Adobe Illustrator 16.0.0, SVG Export Plug-In . SVG Version: 6.00 Build 0)  -->
<!DOCTYPE svg PUBLIC "-//W3C//DTD SVG 1.1//EN" "http://www.w3.org/Graphics/SVG/1.1/DTD/svg11.dtd">
<svg version="1.1" id="Camada_1" xmlns="http://www.w3.org/2000/svg" xmlns:xlink="http://www.w3.org/1999/xlink" x="0px" y="0px"
	 width="750.467px" height="195.792px" viewBox="0 0 750.467 195.792" enable-background="new 0 0 750.467 195.792"
	 xml:space="preserve">
<g>
	<g>
		<path fill="#FFFFFF" d="M74.113,194.977c0,0,12.802,2.288,11.565-0.804c0,0-0.371-0.742-3.648-1.795
			c-6.556-2.226-12.246-6.678-17.75-11.379C29.338,151.563,24.206,98.563,53.086,62.075c0,0,0.371-0.433,0.557-0.68
			c5.751-7.236,12.863-12.678,20.594-16.265c5.999-2.722,6.184-3.958,6.184-3.958c1.793-6.184-21.027-1.175-21.027-1.175
			c-15.77,4.267-30.427,13.605-41.559,27.644C7.507,80.752,1.632,96.089,0.148,111.612c3.092,24.119,14.595,47.001,34.199,63.451
			C46.283,185.144,59.951,191.761,74.113,194.977z"/>
		<path fill="#FFFFFF" d="M0.828,74.135c0,0-2.288,12.801,0.742,11.564c0,0,0.743-0.371,1.855-3.648
			c2.165-6.494,6.679-12.245,11.317-17.749C44.243,29.36,97.181,24.227,133.73,53.17c0,0,0.371,0.371,0.618,0.495
			c7.297,5.751,12.678,12.863,16.265,20.594c2.783,5.999,4.02,6.123,4.02,6.123c6.123,1.855,1.113-20.965,1.113-20.965
			c-4.267-15.77-13.605-30.427-27.644-41.559C115.054,7.467,99.716,1.654,84.194,0.17C60.075,3.262,37.192,14.765,20.68,34.369
			C10.6,46.305,3.982,59.973,0.828,74.135z"/>
		<path fill="#FFFFFF" d="M121.609,0.788c0,0-12.802-2.226-11.503,0.804c0,0,0.371,0.742,3.587,1.793
			c6.556,2.226,12.245,6.741,17.811,11.379c34.88,29.499,40.075,82.438,11.132,118.926c0,0-0.371,0.433-0.495,0.681
			c-5.751,7.234-12.864,12.678-20.656,16.264c-5.999,2.723-6.123,4.021-6.123,4.021c-1.855,6.123,21.027,1.113,21.027,1.113
			c15.708-4.267,30.365-13.604,41.497-27.644c10.39-13.051,16.203-28.388,17.749-43.91c-3.092-24.119-14.657-47.001-34.2-63.513
			C149.438,10.622,135.833,4.004,121.609,0.788z"/>
		<path fill="#FFFFFF" d="M194.956,121.63c0,0,2.288-12.801-0.804-11.504c0,0-0.68,0.373-1.793,3.588
			c-2.165,6.556-6.679,12.246-11.379,17.812c-29.438,34.88-82.438,40.013-118.926,11.132c0,0-0.433-0.371-0.618-0.494
			c-7.297-5.752-12.74-12.926-16.327-20.656c-2.721-5.998-3.958-6.123-3.958-6.123c-6.185-1.854-1.175,21.027-1.175,21.027
			c4.329,15.709,13.605,30.428,27.644,41.498c13.111,10.389,28.448,16.201,43.971,17.748c24.119-3.093,46.939-14.656,63.452-34.199
			C185.122,149.46,191.74,135.792,194.956,121.63z"/>
	</g>
	<g>
		<path fill="#FFFFFF" d="M228.511,66.695h22.705c2.223,0,3.188,0.097,4.251,0.676c1.256,0.725,2.126,2.125,2.126,3.961
			c0,1.835-0.87,3.237-2.126,3.961c-1.063,0.58-2.028,0.676-4.251,0.676h-22.705v20.773h27.633c2.222,0,3.188,0.097,4.251,0.676
			c1.256,0.725,2.126,2.125,2.126,3.96s-0.87,3.236-2.126,3.961c-1.063,0.58-2.029,0.678-4.251,0.678h-31.691
			c-1.546,0-3.381,0-4.879-1.498c-1.498-1.497-1.498-3.333-1.498-4.879V43.604c0-1.546,0-3.382,1.498-4.879s3.333-1.498,4.879-1.498
			h31.691c2.222,0,3.188,0.097,4.251,0.676c1.256,0.725,2.126,2.125,2.126,3.961c0,1.836-0.87,3.237-2.126,3.961
			c-1.063,0.58-2.029,0.676-4.251,0.676h-27.633V66.695L228.511,66.695z"/>
		<path fill="#FFFFFF" d="M303.243,86.695c0-3.092-0.773-5.507-2.706-7.15c-1.738-1.546-4.058-2.416-7.487-2.898l-8.164-1.159
			c-5.556-0.821-9.759-2.561-12.995-5.556c-3.431-3.14-5.073-7.585-5.073-13.188c0-11.981,8.696-20.097,22.995-20.097
			c6.522,0,10.483,1.063,16.185,4.058c2.415,1.256,4.202,3.044,4.202,5.266c0,1.111-0.386,2.222-1.207,3.188
			c-0.773,0.917-1.788,1.498-3.188,1.498c-1.111,0-2.803-0.628-4.203-1.498c-4.106-2.512-7.343-3.382-12.174-3.382
			c-8.116,0-12.464,4.396-12.464,10.676c0,2.512,0.676,4.831,2.512,6.377c1.739,1.546,3.769,2.512,7.536,3.092l8.213,1.256
			c6.28,0.966,9.759,2.416,12.754,5.121c3.672,3.381,5.604,8.116,5.604,14.106c0,12.657-10.241,20.194-24.734,20.194
			c-8.261,0-13.43-1.596-18.502-4.639c-3.575-2.125-4.88-3.575-4.88-6.086c0-1.159,0.531-2.512,1.449-3.43
			c0.87-0.87,1.933-1.256,3.044-1.256c1.353,0,2.561,0.435,4.444,1.739c4.638,3.188,8.695,4.396,14.638,4.396
			C298.122,97.323,303.243,93.458,303.243,86.695z"/>
		<path fill="#FFFFFF" d="M361.356,45.826c-1.063,0.58-2.029,0.676-4.251,0.676h-12.947v52.802c0,2.561-0.048,3.382-0.772,4.734
			c-0.773,1.399-2.367,2.366-4.444,2.366c-2.078,0-3.672-0.967-4.445-2.366c-0.725-1.354-0.772-2.174-0.772-4.734V46.502h-12.947
			c-2.222,0-3.188-0.097-4.251-0.676c-1.256-0.725-2.126-2.125-2.126-3.961c0-1.836,0.87-3.237,2.126-3.961
			c1.063-0.58,2.029-0.676,4.251-0.676h36.329c2.222,0,3.188,0.097,4.251,0.676c1.256,0.725,2.126,2.125,2.126,3.961
			C363.484,43.701,362.612,45.101,361.356,45.826z"/>
		<path fill="#FFFFFF" d="M367.972,82.831v-38.89c0-2.56,0.049-3.381,0.773-4.734c0.772-1.401,2.367-2.367,4.444-2.367
			s3.671,0.966,4.444,2.367c0.726,1.353,0.773,2.174,0.773,4.734v38.406c0,9.227,5.604,14.976,14.202,14.976
			c8.6,0,14.203-5.749,14.203-14.976V43.941c0-2.56,0.049-3.381,0.772-4.734c0.772-1.401,2.367-2.367,4.444-2.367
			c2.076,0,3.672,0.966,4.443,2.367c0.726,1.353,0.773,2.174,0.773,4.734V82.83c0,14.203-10.629,23.769-24.639,23.769
			C378.601,106.599,367.972,97.034,367.972,82.831z"/>
		<path fill="#FFFFFF" d="M434.637,37.227h17.826c8.646,0,14.977,2.898,19.613,8.744c4.831,6.184,5.072,13.43,5.072,25.652
			c0,12.223-0.339,19.565-5.17,25.749c-4.59,5.894-10.869,8.647-19.517,8.647h-17.826c-1.546,0-3.382,0-4.88-1.498
			c-1.497-1.497-1.497-3.333-1.497-4.879V43.604c0-1.546,0-3.382,1.497-4.879C431.255,37.227,433.091,37.227,434.637,37.227z
			 M438.695,96.744h12.561c4.977,0,8.938-1.353,11.836-4.686c3.431-3.865,3.623-10.242,3.623-20.435s-0.192-16.57-3.623-20.435
			c-2.897-3.333-6.859-4.686-11.836-4.686h-12.561V96.744z"/>
		<path fill="#FFFFFF" d="M492.75,92.203l-3.431,9.227c-0.869,2.319-1.305,3.188-2.271,3.962c-0.771,0.628-1.738,1.016-2.85,1.016
			c-1.449,0-2.898-0.58-3.816-1.547c-1.979-2.029-1.353-4.203-0.339-6.909l21.063-56.087c0.725-1.98,1.256-2.802,2.076-3.575
			c1.016-0.966,2.175-1.449,3.816-1.449s2.802,0.483,3.816,1.449c0.82,0.773,1.353,1.594,2.076,3.575l21.063,56.087
			c1.014,2.706,1.643,4.879-0.339,6.909c-0.918,0.967-2.367,1.547-3.816,1.547c-1.11,0-2.077-0.388-2.85-1.016
			c-0.967-0.773-1.401-1.643-2.271-3.962l-3.431-9.227H492.75z M507,53.217l-11.015,30.097h22.028L507,53.217z"/>
		<path fill="#FFFFFF" d="M593.325,90.463c-1.159,2.464-2.608,3.865-5.313,3.865c-2.706,0-4.154-1.401-5.361-3.865L568.06,60.028
			v39.275c0,2.562-0.048,3.382-0.772,4.733c-0.772,1.4-2.366,2.367-4.444,2.367c-2.077,0-3.671-0.967-4.443-2.367
			c-0.726-1.353-0.772-2.174-0.772-4.733V43.265c0-1.691,0.241-3.526,1.546-4.879c1.11-1.111,2.513-1.546,3.816-1.546
			c1.207,0,2.271,0.29,2.946,0.676c0.82,0.483,1.885,1.787,2.561,3.14l19.518,39.807l19.42-39.807
			c0.678-1.353,1.739-2.657,2.562-3.14c0.676-0.387,1.739-0.676,2.946-0.676c1.305,0,2.705,0.435,3.815,1.546
			c1.305,1.354,1.546,3.188,1.546,4.879v56.039c0,2.561-0.048,3.382-0.771,4.734c-0.773,1.399-2.367,2.366-4.444,2.366
			s-3.672-0.967-4.444-2.366c-0.725-1.354-0.772-2.174-0.772-4.734V60.029L593.325,90.463z"/>
		<path fill="#FFFFFF" d="M637.283,92.203l-3.432,9.227c-0.868,2.319-1.304,3.188-2.271,3.962c-0.772,0.628-1.738,1.016-2.85,1.016
			c-1.449,0-2.898-0.58-3.816-1.547c-1.979-2.029-1.353-4.203-0.339-6.909l21.063-56.087c0.726-1.98,1.256-2.802,2.077-3.575
			c1.016-0.966,2.174-1.449,3.816-1.449c1.642,0,2.802,0.483,3.815,1.449c0.821,0.773,1.354,1.594,2.077,3.575l21.063,56.087
			c1.014,2.706,1.643,4.879-0.339,6.909c-0.918,0.967-2.367,1.547-3.816,1.547c-1.111,0-2.077-0.388-2.85-1.016
			c-0.968-0.773-1.401-1.643-2.271-3.962l-3.431-9.227H637.283z M651.534,53.217l-11.016,30.097h22.029L651.534,53.217z"/>
		<path fill="#FFFFFF" d="M694.428,104.039c-0.771,1.4-2.366,2.367-4.443,2.367s-3.672-0.967-4.444-2.367
			c-0.725-1.353-0.772-2.174-0.772-4.733V43.941c0-2.56,0.049-3.381,0.772-4.734c0.773-1.401,2.367-2.367,4.444-2.367
			c2.078,0,3.672,0.966,4.443,2.367c0.727,1.353,0.773,2.174,0.773,4.734v55.363C695.202,101.865,695.154,102.686,694.428,104.039z"
			/>
		<path fill="#FFFFFF" d="M740.128,86.695c0-3.092-0.771-5.507-2.705-7.15c-1.739-1.546-4.058-2.416-7.487-2.898l-8.164-1.159
			c-5.557-0.821-9.759-2.561-12.995-5.556c-3.431-3.14-5.072-7.585-5.072-13.188c0-11.981,8.695-20.097,22.995-20.097
			c6.521,0,10.482,1.063,16.184,4.058c2.416,1.256,4.203,3.044,4.203,5.266c0,1.111-0.387,2.222-1.208,3.188
			c-0.771,0.917-1.787,1.498-3.188,1.498c-1.11,0-2.803-0.628-4.202-1.498c-4.106-2.512-7.345-3.382-12.176-3.382
			c-8.114,0-12.464,4.396-12.464,10.676c0,2.512,0.678,4.831,2.514,6.377c1.738,1.546,3.768,2.512,7.536,3.092l8.213,1.256
			c6.279,0.966,9.758,2.416,12.753,5.121c3.672,3.381,5.604,8.116,5.604,14.106c0,12.657-10.242,20.194-24.733,20.194
			c-8.262,0-13.432-1.596-18.503-4.639c-3.574-2.125-4.88-3.575-4.88-6.086c0-1.159,0.531-2.512,1.449-3.43
			c0.869-0.87,1.934-1.256,3.043-1.256c1.354,0,2.562,0.435,4.445,1.739c4.638,3.188,8.695,4.396,14.638,4.396
			C735.008,97.323,740.128,93.458,740.128,86.695z"/>
	</g>
	<g>
		<path fill="#FFFFFF" d="M221.04,174.993c-1.02,0-2.231,0-3.219-0.988c-0.988-0.988-0.988-2.199-0.988-3.22v-36.976
			c0-1.02,0-2.231,0.988-3.219c0.988-0.988,2.199-0.988,3.219-0.988h13.452c8.415,0,13.707,4.781,13.707,12.432
			c0,4.908-3.06,8.415-6.12,9.626c3.506,1.402,6.821,4.781,6.821,10.519c0,8.352-5.674,12.814-13.707,12.814H221.04z
			 M233.918,148.823c4.399,0,7.395-2.327,7.395-6.534c0-4.239-2.996-6.566-7.395-6.566h-10.2v13.101H233.918z M223.718,154.943
			v13.93h10.837c4.782,0,7.459-2.965,7.459-7.013c0-4.017-2.677-6.917-7.459-6.917H223.718z"/>
		<path fill="#FFFFFF" d="M274.399,170.562v-36.753c0-1.02,0-2.231,0.988-3.219c0.988-0.988,2.199-0.988,3.219-0.988h13.388
			c8.606,0,14.089,5.546,14.089,13.26c0,6.471-3.921,10.615-8.989,12.049l8.128,14.185c0.797,1.403,1.052,1.977,1.084,2.837
			c0.032,1.116-0.51,2.136-1.689,2.838c-0.574,0.351-1.243,0.478-1.849,0.478c-1.721,0-2.518-1.211-3.411-2.805l-9.467-16.575
			h-8.606v14.694c0,1.689-0.032,2.231-0.51,3.124c-0.51,0.924-1.562,1.562-2.933,1.562c-1.371,0-2.422-0.638-2.932-1.562
			C274.431,172.793,274.399,172.251,274.399,170.562z M281.285,135.722v14.28h10.2c4.59,0,7.714-2.614,7.714-7.076
			c0-4.495-3.124-7.204-7.714-7.204H281.285z"/>
		<path fill="#FFFFFF" d="M336.11,165.876l-2.263,6.088c-0.574,1.53-0.86,2.104-1.498,2.614c-0.51,0.414-1.147,0.669-1.881,0.669
			c-0.956,0-1.912-0.383-2.518-1.02c-1.307-1.339-0.893-2.773-0.223-4.559l13.898-37.008c0.478-1.307,0.829-1.849,1.371-2.358
			c0.669-0.638,1.435-0.956,2.518-0.956c1.084,0,1.849,0.318,2.518,0.956c0.542,0.51,0.893,1.052,1.371,2.358l13.897,37.008
			c0.669,1.785,1.084,3.22-0.223,4.559c-0.605,0.637-1.562,1.02-2.518,1.02c-0.733,0-1.371-0.255-1.881-0.669
			c-0.637-0.511-0.924-1.084-1.498-2.614l-2.263-6.088H336.11z M345.513,140.153l-7.268,19.858h14.535L345.513,140.153z"/>
		<path fill="#FFFFFF" d="M393.453,170.562c0,1.689-0.032,2.231-0.51,3.124c-0.511,0.924-1.563,1.562-2.933,1.562
			c-1.371,0-2.423-0.638-2.933-1.562c-0.479-0.893-0.51-1.435-0.51-3.124v-36.816c0-1.498,0.223-2.55,0.987-3.315
			c0.701-0.701,1.563-1.083,2.614-1.083c1.626,0,2.646,0.987,4.017,3.027l19.699,29.103v-27.444c0-1.689,0.031-2.231,0.51-3.124
			c0.51-0.925,1.562-1.562,2.933-1.562c1.37,0,2.422,0.637,2.933,1.562c0.478,0.893,0.51,1.435,0.51,3.124v36.848
			c0,1.498-0.224,2.519-0.988,3.283c-0.701,0.701-1.562,1.084-2.613,1.084c-1.626,0-2.646-0.988-4.017-3.028l-19.699-29.103V170.562
			z"/>
		<path fill="#FFFFFF" d="M446.271,152.297c0-9.531,0.16-14.058,4.559-18.456c2.933-2.933,6.758-4.622,11.762-4.622
			c4.973,0,8.798,1.689,11.73,4.622c4.399,4.398,4.59,8.925,4.59,18.456c0,8.16-0.127,12.654-2.932,16.543l2.295,2.295
			c0.956,0.957,1.243,1.339,1.434,2.009c0.224,0.829-0.031,1.753-0.765,2.486s-1.657,0.988-2.486,0.765
			c-0.669-0.191-1.052-0.478-2.008-1.435l-2.359-2.358c-2.581,1.785-5.705,2.773-9.499,2.773c-5.004,0-8.829-1.689-11.762-4.622
			C446.431,166.354,446.271,161.828,446.271,152.297z M462.719,162.657c-0.223-0.829,0.032-1.753,0.765-2.486
			c0.733-0.733,1.658-0.988,2.486-0.765c0.67,0.191,1.053,0.478,2.009,1.435l2.709,2.709c1.18-2.327,1.339-5.451,1.339-11.252
			c0-8.989-0.446-11.73-2.678-14.121c-1.689-1.785-4.016-2.837-6.758-2.837c-2.772,0-5.1,1.052-6.757,2.837
			c-2.264,2.391-2.678,5.132-2.678,14.121s0.414,11.698,2.678,14.089c1.657,1.785,3.984,2.869,6.757,2.869
			c1.722,0,3.315-0.479,4.654-1.498l-3.06-3.093C463.197,163.708,462.91,163.327,462.719,162.657z"/>
		<path fill="#FFFFFF" d="M503.709,159.692v-25.659c0-1.689,0.032-2.231,0.511-3.124c0.51-0.925,1.562-1.562,2.933-1.562
			c1.37,0,2.422,0.637,2.933,1.562c0.478,0.893,0.51,1.435,0.51,3.124v25.341c0,6.088,3.697,9.882,9.371,9.882
			s9.371-3.794,9.371-9.882v-25.341c0-1.689,0.032-2.231,0.511-3.124c0.51-0.925,1.562-1.562,2.933-1.562
			c1.37,0,2.422,0.637,2.933,1.562c0.478,0.893,0.51,1.435,0.51,3.124v25.659c0,9.372-7.013,15.684-16.257,15.684
			S503.709,169.064,503.709,159.692z"/>
		<path fill="#FFFFFF" d="M568.99,173.686c-0.511,0.924-1.563,1.562-2.933,1.562c-1.371,0-2.423-0.638-2.933-1.562
			c-0.479-0.893-0.51-1.435-0.51-3.124v-36.529c0-1.689,0.031-2.231,0.51-3.124c0.51-0.925,1.562-1.562,2.933-1.562
			c1.37,0,2.422,0.637,2.933,1.562c0.478,0.893,0.51,1.435,0.51,3.124v36.529C569.5,172.251,569.468,172.793,568.99,173.686z"/>
		<path fill="#FFFFFF" d="M603.479,170.562c0,1.689-0.032,2.231-0.51,3.124c-0.511,0.924-1.563,1.562-2.933,1.562
			c-1.371,0-2.423-0.638-2.933-1.562c-0.479-0.893-0.51-1.435-0.51-3.124v-36.816c0-1.498,0.223-2.55,0.987-3.315
			c0.701-0.701,1.563-1.083,2.614-1.083c1.626,0,2.646,0.987,4.017,3.027l19.699,29.103v-27.444c0-1.689,0.031-2.231,0.51-3.124
			c0.51-0.925,1.562-1.562,2.933-1.562c1.37,0,2.422,0.637,2.933,1.562c0.478,0.893,0.51,1.435,0.51,3.124v36.848
			c0,1.498-0.224,2.519-0.988,3.283c-0.701,0.701-1.562,1.084-2.613,1.084c-1.626,0-2.646-0.988-4.017-3.028l-19.699-29.103V170.562
			z"/>
		<path fill="#FFFFFF" d="M683.2,149.014v-14.981c0-1.689,0.032-2.231,0.51-3.124c0.511-0.925,1.563-1.562,2.933-1.562
			c1.371,0,2.423,0.637,2.933,1.562c0.479,0.893,0.511,1.435,0.511,3.124v36.529c0,1.689-0.032,2.231-0.511,3.124
			c-0.51,0.924-1.562,1.562-2.933,1.562c-1.37,0-2.422-0.638-2.933-1.562c-0.478-0.893-0.51-1.435-0.51-3.124v-15.428h-18.424
			v15.428c0,1.689-0.032,2.231-0.51,3.124c-0.511,0.924-1.563,1.562-2.933,1.562c-1.371,0-2.423-0.638-2.933-1.562
			c-0.479-0.893-0.51-1.435-0.51-3.124v-36.529c0-1.689,0.031-2.231,0.51-3.124c0.51-0.925,1.562-1.562,2.933-1.562
			c1.37,0,2.422,0.637,2.933,1.562c0.478,0.893,0.51,1.435,0.51,3.124v14.981H683.2z"/>
		<path fill="#FFFFFF" d="M721.736,165.876l-2.263,6.088c-0.574,1.53-0.861,2.104-1.498,2.614c-0.511,0.414-1.148,0.669-1.881,0.669
			c-0.956,0-1.913-0.383-2.519-1.02c-1.307-1.339-0.893-2.773-0.223-4.559l13.897-37.008c0.479-1.307,0.829-1.849,1.371-2.358
			c0.669-0.638,1.434-0.956,2.518-0.956s1.849,0.318,2.519,0.956c0.542,0.51,0.893,1.052,1.37,2.358l13.898,37.008
			c0.669,1.785,1.083,3.22-0.224,4.559c-0.605,0.637-1.562,1.02-2.519,1.02c-0.732,0-1.37-0.255-1.88-0.669
			c-0.638-0.511-0.925-1.084-1.498-2.614l-2.264-6.088H721.736z M731.14,140.153l-7.268,19.858h14.535L731.14,140.153z"/>
	</g>
</g>
</svg>
